HIERARCHY
ROOT Hips
{
  OFFSET 5.80788e-005 67.184 3.4734
  CHANNELS 6 Xposition Yposition Zposition Zrotation Xrotation Yrotation
  JOINT Chest
  {
    OFFSET 0 8.7983 -4.7612
    CHANNELS 3 Zrotation Xrotation Yrotation
    JOINT Chest2
    {
      OFFSET 0 8.0291 0.4195
      CHANNELS 3 Zrotation Xrotation Yrotation
      JOINT Chest3
      {
        OFFSET 0 9.9351 -2.2114
        CHANNELS 3 Zrotation Xrotation Yrotation
        JOINT Neck
        {
          OFFSET 0 22.3885 -0.4656
          CHANNELS 3 Zrotation Xrotation Yrotation
          JOINT Head
          {
            OFFSET -0.0001 12.643 3.4389
            CHANNELS 3 Zrotation Xrotation Yrotation
            End Site
            {
              OFFSET 0.0001 17.6655 0.5274
            }
          }
        }
        JOINT LeftCollar
        {
          OFFSET 2.2603 21.606 7.4023
          CHANNELS 3 Zrotation Xrotation Yrotation
          JOINT LeftShoulder
          {
            OFFSET 13.5163 -1.1332 -5.0146
            CHANNELS 3 Zrotation Xrotation Yrotation
            JOINT LeftElbow
            {
              OFFSET -0.0995 -28.05 -0.2431
              CHANNELS 3 Zrotation Xrotation Yrotation
              JOINT LeftWrist
              {
                OFFSET 0.0679 -23.3996 -0.1402
                CHANNELS 3 Zrotation Xrotation Yrotation
                JOINT LeftFinger1
                {
                  OFFSET 0.7932 -9.069 2.5189
                  CHANNELS 3 Zrotation Xrotation Yrotation
                  JOINT LeftFinger11
                  {
                    OFFSET -0.8272 -3.3923 0.5977
                    CHANNELS 3 Zrotation Xrotation Yrotation
                    JOINT LeftFinger12
                    {
                      OFFSET -0.5649 -2.3158 0.4082
                      CHANNELS 3 Zrotation Xrotation Yrotation
                      End Site
                      {
                        OFFSET -0.4919 -1.6479 0.2673
                      }
                    }
                  }
                }
                JOINT LeftFinger2
                {
                  OFFSET 0.9159 -9.2044 0.2193
                  CHANNELS 3 Zrotation Xrotation Yrotation
                  JOINT LeftFinger21
                  {
                    OFFSET 0.0117 -4.1944 -0.0248
                    CHANNELS 3 Zrotation Xrotation Yrotation
                    JOINT LeftFinger22
                    {
                      OFFSET 0.0071 -2.3249 -0.0142
                      CHANNELS 3 Zrotation Xrotation Yrotation
                      End Site
                      {
                        OFFSET -0.1475 -2.0882 0.0028
                      }
                    }
                  }
                }
                JOINT LeftFinger3
                {
                  OFFSET 0.6113 -8.7231 -2.0637
                  CHANNELS 3 Zrotation Xrotation Yrotation
                  JOINT LeftFinger31
                  {
                    OFFSET -0.1927 -3.8059 -0.2383
                    CHANNELS 3 Zrotation Xrotation Yrotation
                    JOINT LeftFinger32
                    {
                      OFFSET -0.1091 -2.1688 -0.1362
                      CHANNELS 3 Zrotation Xrotation Yrotation
                      End Site
                      {
                        OFFSET -0.2358 -1.9176 -0.0906
                      }
                    }
                  }
                }
                JOINT LeftFinger4
                {
                  OFFSET -0.6151 -8.0947 -3.5641
                  CHANNELS 3 Zrotation Xrotation Yrotation
                  JOINT LeftFinger41
                  {
                    OFFSET -0.4882 -2.341 -0.6462
                    CHANNELS 3 Zrotation Xrotation Yrotation
                    JOINT LeftFinger42
                    {
                      OFFSET -0.3575 -1.7167 -0.4742
                      CHANNELS 3 Zrotation Xrotation Yrotation
                      End Site
                      {
                        OFFSET -0.4187 -1.5237 -0.3496
                      }
                    }
                  }
                }
                JOINT LeftFinger0
                {
                  OFFSET -1.42 -1.8761 1.4223
                  CHANNELS 3 Zrotation Xrotation Yrotation
                  JOINT LeftFinger01
                  {
                    OFFSET -1.1471 -3.4929 2.6334
                    CHANNELS 3 Zrotation Xrotation Yrotation
                    JOINT LeftFinger02
                    {
                      OFFSET -0.823 -2.3 1.6571
                      CHANNELS 3 Zrotation Xrotation Yrotation
                      End Site
                      {
                        OFFSET -0.5822 -1.6914 1.1582
                      }
                    }
                  }
                }
              }
            }
          }
        }
        JOINT RightCollar
        {
          OFFSET -2.2603 21.606 7.4023
          CHANNELS 3 Zrotation Xrotation Yrotation
          JOINT RightShoulder
          {
            OFFSET -13.5187 -1.1334 -5.0155
            CHANNELS 3 Zrotation Xrotation Yrotation
            JOINT RightElbow
            {
              OFFSET 0.0994 -28.0499 -0.2431
              CHANNELS 3 Zrotation Xrotation Yrotation
              JOINT RightWrist
              {
                OFFSET -0.0679 -23.3996 -0.1402
                CHANNELS 3 Zrotation Xrotation Yrotation
                JOINT RightFinger1
                {
                  OFFSET -0.7932 -9.0691 2.5189
                  CHANNELS 3 Zrotation Xrotation Yrotation
                  JOINT RightFinger11
                  {
                    OFFSET 0.8272 -3.3923 0.5977
                    CHANNELS 3 Zrotation Xrotation Yrotation
                    JOINT RightFinger12
                    {
                      OFFSET 0.565 -2.3158 0.4082
                      CHANNELS 3 Zrotation Xrotation Yrotation
                      End Site
                      {
                        OFFSET 0.4919 -1.6479 0.2673
                      }
                    }
                  }
                }
                JOINT RightFinger2
                {
                  OFFSET -0.916 -9.2044 0.2193
                  CHANNELS 3 Zrotation Xrotation Yrotation
                  JOINT RightFinger21
                  {
                    OFFSET -0.0117 -4.1944 -0.0248
                    CHANNELS 3 Zrotation Xrotation Yrotation
                    JOINT RightFinger22
                    {
                      OFFSET -0.0071 -2.3249 -0.0142
                      CHANNELS 3 Zrotation Xrotation Yrotation
                      End Site
                      {
                        OFFSET 0.1475 -2.0882 0.0028
                      }
                    }
                  }
                }
                JOINT RightFinger3
                {
                  OFFSET -0.6113 -8.7231 -2.0637
                  CHANNELS 3 Zrotation Xrotation Yrotation
                  JOINT RightFinger31
                  {
                    OFFSET 0.1927 -3.8059 -0.2383
                    CHANNELS 3 Zrotation Xrotation Yrotation
                    JOINT RightFinger32
                    {
                      OFFSET 0.1091 -2.1688 -0.1362
                      CHANNELS 3 Zrotation Xrotation Yrotation
                      End Site
                      {
                        OFFSET 0.2358 -1.9176 -0.0906
                      }
                    }
                  }
                }
                JOINT RightFinger4
                {
                  OFFSET 0.6151 -8.0947 -3.564
                  CHANNELS 3 Zrotation Xrotation Yrotation
                  JOINT RightFinger41
                  {
                    OFFSET 0.4882 -2.341 -0.6462
                    CHANNELS 3 Zrotation Xrotation Yrotation
                    JOINT RightFinger42
                    {
                      OFFSET 0.3574 -1.7166 -0.4742
                      CHANNELS 3 Zrotation Xrotation Yrotation
                      End Site
                      {
                        OFFSET 0.4187 -1.5237 -0.3496
                      }
                    }
                  }
                }
                JOINT RightFinger0
                {
                  OFFSET 1.4199 -1.8761 1.4221
                  CHANNELS 3 Zrotation Xrotation Yrotation
                  JOINT RightFinger01
                  {
                    OFFSET 1.1472 -3.4929 2.6336
                    CHANNELS 3 Zrotation Xrotation Yrotation
                    JOINT RightFinger02
                    {
                      OFFSET 0.8229 -2.3 1.6571
                      CHANNELS 3 Zrotation Xrotation Yrotation
                      End Site
                      {
                        OFFSET 0.5822 -1.6914 1.1582
                      }
                    }
                  }
                }
              }
            }
          }
        }
      }
    }
  }
  JOINT RightHip
  {
    OFFSET -9.412 3.9771 -0.7758
    CHANNELS 3 Zrotation Xrotation Yrotation
    JOINT RightKnee
    {
      OFFSET -0.7531 -40.938 0
      CHANNELS 3 Zrotation Xrotation Yrotation
      JOINT RightAnkle
      {
        OFFSET 0 -40.1986 0
        CHANNELS 3 Zrotation Xrotation Yrotation
        JOINT RightToe
        {
          OFFSET 0 -4.4182 9.239
          CHANNELS 3 Zrotation Xrotation Yrotation
          End Site
          {
            OFFSET 0 0 6.1981
          }
        }
      }
    }
  }
  JOINT LeftHip
  {
    OFFSET 9.4119 3.9773 -0.7758
    CHANNELS 3 Zrotation Xrotation Yrotation
    JOINT LeftKnee
    {
      OFFSET 0.7532 -40.9383 0
      CHANNELS 3 Zrotation Xrotation Yrotation
      JOINT LeftAnkle
      {
        OFFSET 0 -40.1986 0
        CHANNELS 3 Zrotation Xrotation Yrotation
        JOINT LeftToe
        {
          OFFSET 0 -4.4182 9.239
          CHANNELS 3 Zrotation Xrotation Yrotation
          End Site
          {
            OFFSET 0 0 6.1981
          }
        }
      }
    }
  }
}
MOTION
Frames:	4
Frame Time:	0.0333333
5.80788e-005 67.184 3.4734 0 0 -0 0 0 -0 0 0 -0 0 0 -0 0 0 -0 0 0 -0 0 0 -12.5014 88.1196 14.2451 10.6914 -0.00160068 -0.00239207 0.000740045 -8.4365e-005 7.00714e-005 -9.52055e-007 9.93923e-017 -1.98785e-016 -1.59028e-015 9.93923e-017 -5.96354e-016 -1.59028e-015 -9.93923e-017 -5.96354e-016 -1.59028e-015 9.93923e-017 -1.98785e-016 -1.59028e-015 -0.0128176 0.00232552 8.52707e-005 9.93923e-017 5.96354e-016 -0 9.93923e-017 -1.98785e-016 -1.59028e-015 -0.0160551 0.00299681 0.000857156 -2.48481e-016 0 3.18055e-015 9.93923e-017 -1.98785e-016 -1.59028e-015 -0.0125865 0.0031206 0.00282719 0 1.98785e-016 -0 9.93923e-017 -1.98785e-016 -1.59028e-015 9.93923e-017 -5.96354e-016 -1.59028e-015 -9.93923e-017 -5.96354e-016 -1.59028e-015 -0.865644 0.16582 7.03859 -88.0329 10.2057 -10.5567 0.0015593 -0.00248883 -0.000788628 7.87605e-005 4.10553e-005 1.24965e-005 -3.97569e-016 -7.95139e-016 3.18055e-015 -1.98785e-016 -3.97569e-016 3.18055e-015 -1.98785e-016 0 3.18055e-015 -3.97569e-016 -7.95139e-016 3.18055e-015 0.0129473 0.00231697 -8.70038e-005 9.93923e-017 -7.95139e-016 1.59028e-015 -3.97569e-016 -7.95139e-016 3.18055e-015 0.0163314 0.00303369 -0.000872333 3.97569e-016 7.95139e-016 -3.18055e-015 -3.97569e-016 -7.95139e-016 3.18055e-015 0.0145763 0.00367772 -0.00326275 9.93923e-017 -3.97569e-016 -0 -3.97569e-016 -7.95139e-016 3.18055e-015 -1.98785e-016 -3.97569e-016 3.18055e-015 -1.98785e-016 0 3.18055e-015 3.42485 1.36937 -0.0640303 0.000136572 0.69354 0.00145564 -3.42573 -2.06297 -0.0607933 -3.19502e-024 0 -1.48106e-024 -3.42498 1.36123 0.0639712 -6.769e-005 0.712612 -0.0012277 3.42582 -2.07388 0.0612819 2.55305e-023 0 -2.31416e-026 
-3.90879 26.5132 25.4233 -47.0143 -3.16381 92.9312 0.0904922 -2.98156 0.00808023 0.181767 -5.9631 0.0209546 0.181785 -5.96305 0.0209255 -1.15741e-007 -5.39562 7.83351e-006 8.76562e-006 11.6052 -1.53694e-005 0.512462 -19.9943 -5.99555 60.0367 -8.1442 15.1758 -11.9683 -58.8468 -34.0887 -14.2224 10.7303 35.7376 1.55391e-006 -8.87338e-007 -1.73462e-006 9.54166e-015 6.36111e-015 6.36111e-015 -1.55391e-006 8.87338e-007 1.73462e-006 1.55391e-006 -8.87338e-007 -1.73462e-006 -0.0128715 0.00233814 8.78839e-005 -0 0 6.36111e-015 1.55391e-006 -8.87338e-007 -1.73462e-006 -0.0160657 0.0030003 0.000861091 -9.54166e-015 -4.77083e-015 -0 1.55391e-006 -8.87338e-007 -1.73462e-006 -0.0126193 0.00313628 0.00283285 -1.63066e-006 -1.93767e-006 1.6608e-006 1.55391e-006 -8.87338e-007 -1.73462e-006 9.54166e-015 6.36111e-015 6.36111e-015 -1.55391e-006 8.87338e-007 1.73462e-006 -7.47728 -1.60725 -15.454 -55.6026 -14.8946 -7.01862 17.4222 -68.8845 7.54685 -18.5318 12.0163 -10.6653 -4.23735e-030 -1.90833e-014 -1.27222e-014 -1.27222e-014 -6.36111e-015 -1.27222e-014 -9.54166e-015 -6.36111e-015 -3.18055e-015 -4.23735e-030 -1.90833e-014 -1.27222e-014 0.01298 0.00232626 -9.32394e-005 -3.18055e-015 0 -0 -4.23735e-030 -1.90833e-014 -1.27222e-014 0.0163314 0.0030409 -0.000875468 -6.63803e-006 -6.18691e-006 1.64251e-006 -4.23735e-030 -1.90833e-014 -1.27222e-014 0.0145276 0.00366382 -0.00325153 -3.18055e-015 3.18055e-015 -6.36111e-015 -4.23735e-030 -1.90833e-014 -1.27222e-014 -1.27222e-014 -6.36111e-015 -1.27222e-014 -9.54166e-015 -6.36111e-015 -3.18055e-015 0.479529 0.00727014 -2.01927 -4.26159 60.4582 3.74045 -5.03068 6.65364 0.364579 9.9117e-006 5.27357e-005 2.30074e-005 1.03858 -0.559572 1.31719 0.966909 45.254 -1.232 7.69134 19.0628 0.195656 -2.17322e-006 -1.51408e-005 -2.52825e-006 
-1.21828 -3.32619 53.793 -63.9768 -82.199 115.573 0.158736 -5.45623 0.0462365 0.324139 -10.9123 0.108477 0.32414 -10.9123 0.108478 2.94267e-006 -9.70675 -1.198e-008 6.30948e-007 21.2005 -1.11146e-006 5.18745 -36.1246 1.4416 39.8905 -28.6302 18.9697 -144.772 -66.57 173.822 -25.4902 19.4049 65.8403 -9.37955e-032 1.59028e-015 3.37934e-015 7.55035e-006 2.466e-006 -6.02453e-006 -3.18055e-015 7.95139e-016 1.19271e-015 -9.37955e-032 1.59028e-015 3.37934e-015 -0.0128001 0.00232752 9.18567e-005 3.18055e-015 1.37161e-014 -2.90226e-014 -9.37955e-032 1.59028e-015 3.37934e-015 -0.0160491 0.00298151 0.000840318 -6.36111e-015 5.96354e-016 3.77691e-015 -9.37955e-032 1.59028e-015 3.37934e-015 -0.0126115 0.00312366 0.0028179 -3.18055e-015 1.07344e-014 -2.47487e-014 -9.37955e-032 1.59028e-015 3.37934e-015 7.55035e-006 2.466e-006 -6.02453e-006 -3.18055e-015 7.95139e-016 1.19271e-015 -14.0743 -2.49453 -34.2548 -31.0923 -37.1758 -4.63517 144.632 -47.1617 129.6 -33.264 22.4643 -20.1457 3.18055e-015 0 -3.18055e-015 2.38542e-015 6.36111e-015 -7.95139e-016 -5.51738e-032 -3.18055e-015 -9.93923e-016 3.18055e-015 0 -3.18055e-015 0.0129339 0.00231762 -8.49846e-005 -7.95139e-016 0 2.18663e-015 3.18055e-015 0 -3.18055e-015 0.0163416 0.00304081 -0.000876766 -2.38542e-015 6.36111e-015 7.95139e-016 3.18055e-015 0 -3.18055e-015 0.014604 0.00368098 -0.00326804 -1.59028e-015 0 -1.78906e-015 3.18055e-015 0 -3.18055e-015 2.38542e-015 6.36111e-015 -7.95139e-016 -5.51738e-032 -3.18055e-015 -9.93923e-016 -1.94846 0.127294 -4.62779 -166.563 70.6522 163.084 -6.25975 14.3627 0.190976 3.57812e-015 -3.18055e-015 7.95139e-016 4.54633 -2.06998 2.60024 19.2294 80.677 -18.3664 10.7097 37.8727 0.956933 7.95139e-016 3.18055e-015 6.36111e-015 
1.47393 -10.4785 59.3307 117.689 -75.788 -63.3064 0.173954 -6.02269 0.0597495 0.357247 -12.0452 0.139166 0.357248 -12.0452 0.139165 1.196e-006 -9.93498 1.98622e-006 3.37035e-007 23.2283 -2.36442e-006 7.43782 -40.2152 4.04913 35.3413 -33.9212 20.1009 -153.631 -54.7753 160.265 -28.1639 21.5942 73.4873 7.95139e-016 0 2.75814e-015 1.59028e-015 -3.97569e-016 2.73329e-015 7.95139e-016 -3.97569e-016 5.889e-015 7.95139e-016 0 2.75814e-015 -0.0127931 0.00233822 8.99935e-005 -7.95139e-016 -3.97569e-016 6.06293e-015 7.95139e-016 0 2.75814e-015 -0.0160207 0.00301119 0.000863883 -7.95139e-016 0 2.70844e-015 7.95139e-016 0 2.75814e-015 -0.0125899 0.00313534 0.00283271 7.95139e-016 -1.25234e-014 -2.48481e-017 7.95139e-016 0 2.75814e-015 1.59028e-015 -3.97569e-016 2.73329e-015 7.95139e-016 -3.97569e-016 5.889e-015 -15.9608 -2.83706 -39.0359 -25.4068 -42.8622 -4.31727 146.536 -32.6226 130.36 -36.8485 25.2285 -22.6769 4.41391e-032 -1.59028e-015 1.59028e-015 3.18055e-015 3.18055e-015 -2.38542e-015 3.18055e-015 3.18055e-015 7.95139e-016 4.41391e-032 -1.59028e-015 1.59028e-015 0.0129459 0.00231538 -9.30861e-005 -6.36111e-015 1.59028e-014 2.54444e-014 4.41391e-032 -1.59028e-015 1.59028e-015 0.0163247 0.00301722 -0.00086319 -6.36111e-015 -1.59028e-015 -3.18055e-015 4.41391e-032 -1.59028e-015 1.59028e-015 0.0145856 0.00366669 -0.00325179 -3.18055e-015 -4.77083e-015 -7.95139e-016 4.41391e-032 -1.59028e-015 1.59028e-015 3.18055e-015 3.18055e-015 -2.38542e-015 3.18055e-015 3.18055e-015 7.95139e-016 -2.56512 0.454935 -5.72573 -171.322 58.7691 166.514 -6.47863 16.0492 -0.0577951 -4.261e-024 -5.11729e-008 -4.77083e-015 5.40365 -2.47911 3.01359 92.5539 86.3278 -91.227 11.284 42.6749 1.34326 3.01832e-007 2.43617e-006 -2.9884e-007 
